<?xml version="1.0" encoding="UTF-8" standalone="no"?>
<svg
   version="1.1"
   width="70"
   height="70"
   viewBox="0,0,70,70"
   odoo-icon:version="1.0"
   odoo-icon:size="70"
   odoo-icon:icon-size="0.65"
   odoo-icon:icon-color="#FFFFFF"
   odoo-icon:icon-flat-shadow-angle="135"
   odoo-icon:background-color="#3949ab"
   odoo-icon:background-gradient="0.2"
   odoo-icon:box-radius="3.5"
   odoo-icon:odoo-version="16.0"
   id="svg2"
   sodipodi:docname="icon (4).svg"
   inkscape:version="1.3.2 (091e20ef0f, 2023-11-25)"
   xmlns:inkscape="http://www.inkscape.org/namespaces/inkscape"
   xmlns:sodipodi="http://sodipodi.sourceforge.net/DTD/sodipodi-0.dtd"
   xmlns="http://www.w3.org/2000/svg"
   xmlns:svg="http://www.w3.org/2000/svg"
   xmlns:odoo-icon="https://ivantodorovich.github.io/odoo-icon">
  <sodipodi:namedview
     id="namedview2"
     pagecolor="#505050"
     bordercolor="#eeeeee"
     borderopacity="1"
     inkscape:showpageshadow="0"
     inkscape:pageopacity="0"
     inkscape:pagecheckerboard="0"
     inkscape:deskcolor="#505050"
     inkscape:zoom="11.614286"
     inkscape:cx="35"
     inkscape:cy="35"
     inkscape:window-width="1920"
     inkscape:window-height="1043"
     inkscape:window-x="0"
     inkscape:window-y="0"
     inkscape:window-maximized="1"
     inkscape:current-layer="svg2" />
  <defs
     id="defs2">
    <linearGradient
       x1="70"
       y1="0"
       x2="0"
       y2="70"
       gradientUnits="userSpaceOnUse"
       id="color-1">
      <stop
         offset="0"
         stop-color="#6c7cde"
         id="stop1" />
      <stop
         offset="1"
         stop-color="#3949ab"
         id="stop2" />
    </linearGradient>
  </defs>
  <g
     fill="none"
     fill-rule="nonzero"
     stroke="none"
     stroke-width="1"
     stroke-linecap="butt"
     stroke-linejoin="miter"
     stroke-miterlimit="10"
     stroke-dasharray=""
     stroke-dashoffset="0"
     font-family="none"
     font-weight="none"
     font-size="none"
     text-anchor="none"
     style="mix-blend-mode: normal"
     id="g2">
    <path
       d="M3.5,70c-1.933,0 -3.5,-1.567 -3.5,-3.5v-63c0,-1.933 1.567,-3.5 3.5,-3.5h63c1.933,0 3.5,1.567 3.5,3.5v63c0,1.933 -1.567,3.5 -3.5,3.5z"
       id="box"
       fill="url(#color-1)" />
    <path
       d="M65,1h-61c-1.95033,0 -3.2667,0.63396 -3.9491,1.90189c0.28378,-1.64806 1.72001,-2.90189 3.4491,-2.90189h63c1.72965,0 3.16627,1.25466 3.44938,2.90352c-0.69803,-1.26902 -2.34782,-1.90352 -4.94938,-1.90352z"
       id="topBoxShadow"
       fill="#ffffff"
       opacity="0.383" />
    <path
       d="M4,69h61c2.66667,0 4.33333,-1 5,-3v0.5c0,1.933 -1.567,3.5 -3.5,3.5h-63c-1.933,0 -3.5,-1.567 -3.5,-3.5c0,-0.1611 0,-0.32777 0,-0.5c0.66667,2 2,3 4,3z"
       id="bottomBoxShadow"
       fill="#000000"
       opacity="0.383" />
    <path
       d="M53.57254,28.5734h-12.19353l10.96477,-13.8536c0.22671,-0.29359 0.0221,-0.7198 -0.34856,-0.7198h-21.22617c-0.15473,0 -0.30436,0.08275 -0.382,0.22161l-14.34102,24.76849c-0.17173,0.29359 0.03854,0.66426 0.382,0.66426h9.65269l-4.94792,19.7928c-0.10542,0.43188 0.41488,0.73624 0.73624,0.42621l32.00843,-30.54163c0.28792,-0.27148 0.09408,-0.75834 -0.30436,-0.75834z"
       id="shadow"
       fill="#000000"
       opacity="0.3" />
    <path
       d="M30.45729,12.12884c0.08213,-0.08213 0.1955,-0.12884 0.31176,-0.12884h21.22617c0.37067,0 0.57527,0.42621 0.34856,0.7198l-10.96477,13.8536l12.19409,0c0.3937,0 0.58764,0.47535 0.31442,0.74857l-42.67803,42.67803h-7.7095c-1.933,0 -3.5,-1.567 -3.5,-3.5l0,-23.91387z"
       id="flatShadow"
       fill="#000000"
       opacity="0.324" />
    <path
       d="M53.57254,26.5734h-12.19353l10.96477,-13.8536c0.22671,-0.29359 0.0221,-0.7198 -0.34856,-0.7198h-21.22617c-0.15473,0 -0.30436,0.08275 -0.382,0.22161l-14.34102,24.76849c-0.17173,0.29359 0.03854,0.66426 0.382,0.66426h9.65269l-4.94792,19.7928c-0.10542,0.43188 0.41488,0.73624 0.73624,0.42621l32.00843,-30.54163c0.28792,-0.27148 0.09408,-0.75834 -0.30436,-0.75834z"
       id="icon"
       fill="#ffffff"
       style="fill:#fdd835;fill-opacity:1" />
  </g>
</svg>
