<svg xmlns="http://www.w3.org/2000/svg" xmlns:xlink="http://www.w3.org/1999/xlink" width="70" height="70"
     viewBox="0 0 70 70">
    <defs>
        <path id="a" d="M4 0h61c4 0 5 1 5 5v60c0 4-1 5-5 5H4c-3 0-4-1-4-5V5c0-4 1-5 4-5z"/>
        <linearGradient id="c" x1="98.162%" x2="0%" y1="1.838%" y2="100%">
            <stop offset="0%" stop-color="#d8926c"/>
            <stop offset="50.799%" stop-color="#d28257"/>
            <stop offset="100%" stop-color="#c77448"/>
        </linearGradient>
    </defs>
    <g fill="none" fill-rule="evenodd">
        <mask id="b" fill="#fff">
            <use xlink:href="#a"/>
        </mask>
        <g mask="url(#b)">
            <path fill="url(#c)" d="M0 0H70V70H0z"/>
            <path fill="#FFF" fill-opacity=".383" d="M4 1h61c2.667 0 4.333.667 5 2V0H0v3c.667-1.333 2-2 4-2z"/>
            <path fill="#000" fill-opacity=".383" d="M4 69h61c2.667 0 4.333-1 5-3v4H0v-4c.667 2 2 3 4 3z"/>
            <g id="svg_7" opacity=".324">
                <rect stroke="null" transform="rotate(45 42.050788879394524,63.20570755004883) " id="svg_2"
                      height="30.27845" width="7.75875" y="48.06648" x="38.17141" stroke-opacity="null"
                      stroke-width="1.44536" fill="#393939"/>
                <rect stroke="null" transform="rotate(45 18.640077590942397,52.190139770507805) " id="svg_1"
                      height="51.90274" width="50.19047" y="26.23877" x="-6.45516" stroke-opacity="null"
                      stroke-width="1.44536" fill="#393939"/>
                <rect stroke="null" transform="rotate(45 47.826065063476584,38.42377471923828) " id="svg_3"
                      height="10.65207" width="16.87597" y="33.09774" x="39.38808" stroke-opacity="null"
                      stroke-width="1.44536" fill="#393939"/>
                <rect id="svg_12" height="6.08944" width="7.13606" y="44.84181" x="48.70123" fill-opacity="null"
                      stroke-opacity="null" stroke-width="1.44536" stroke="null" fill="#393939"/>
                <rect id="svg_13" height="8.69565" width="17.76133" y="14.31892" x="21.77151" stroke-opacity="null"
                      stroke-width="1.44536" stroke="null" fill="#393939"/>
                <rect id="svg_14" height="16.37373" width="25.25439" y="18.66674" x="24.73173" stroke-opacity="null"
                      stroke-width="1.44536" stroke="null" fill="#393939"/>
            </g>
            <path stroke="null" fill="#000" stroke-width="1.44536"
                  d="m44.41381,61.50579c-1.72844,-0.27307 -4.07497,-1.22783 -5.28881,-2.15194c-0.74716,-0.56881 -2.48872,-2.43351 -2.97387,-3.18411c-2.48772,-3.849 -2.49103,-9.04113 -0.00821,-12.88253c1.47766,-2.28623 3.94422,-4.13305 6.54494,-4.90048c2.35286,-0.6943 3.86472,-0.71505 6.63446,-0.09107c0.60992,0.13741 2.90761,1.23246 3.63255,1.73123c1.49376,1.02773 3.04326,2.88321 3.85416,4.61521c0.82981,1.77241 1.08944,2.97381 1.09781,5.08001c0.00869,2.18746 -0.2638,3.35313 -1.27041,5.43461c-0.57829,1.19579 -0.81836,1.51006 -2.21683,2.90203c-1.38444,1.37799 -1.72704,1.63865 -2.92208,2.22326c-0.74457,0.36423 -1.8523,0.78975 -2.46162,0.94559c-1.29471,0.33113 -3.46152,0.46155 -4.62208,0.27819l-0.00001,0zm4.36833,-4.07244c1.31057,-0.45621 2.32231,-1.13976 3.11765,-2.10634c0.68771,-0.83578 1.37506,-2.06632 1.58064,-2.82977l0.15811,-0.58717l0.77093,0c0.9291,0 0.98673,-0.17845 0.33744,-1.04487c-1.11711,-1.49067 -2.00933,-2.72992 -2.21719,-3.07959c-0.31005,-0.52156 -0.61735,-0.61404 -0.87705,-0.26395c-0.11714,0.15791 -0.45437,0.62232 -0.74941,1.03204c-0.29504,0.40972 -0.91715,1.27056 -1.38248,1.91298c-0.46532,0.64242 -0.80775,1.22999 -0.76095,1.30572c0.0468,0.07572 0.43178,0.13767 0.85551,0.13767l0.77042,0l-0.3717,0.73351c-0.49631,0.97943 -1.76736,2.20893 -2.80913,2.71732c-0.69998,0.3416 -1.07325,0.42389 -2.15108,0.47424c-1.45036,0.06775 -2.37474,-0.14614 -3.3346,-0.77158c-0.80957,-0.52752 -0.92297,-0.22128 -0.20012,0.54041c1.94171,2.04601 4.66802,2.7327 7.26301,1.82938zm-6.92059,-7.35838c0.84265,-1.16459 1.55264,-2.21269 1.57774,-2.32912c0.03667,-0.1701 -0.12442,-0.21169 -0.81981,-0.21169l-0.86544,0l0.39633,-0.72733c0.5517,-1.01246 1.80073,-2.24159 2.72544,-2.68202c0.74389,-0.35429 2.69077,-0.78093 2.92342,-0.64064c0.06133,0.03698 0.4291,0.1093 0.81729,0.1607c0.38819,0.05141 1.10056,0.30988 1.58305,0.57438c1.21213,0.66449 1.32546,0.37986 0.24187,-0.60744c-1.54986,-1.41213 -2.99066,-2.00336 -4.88671,-2.00524c-1.19203,-0.00114 -2.65093,0.43119 -3.70936,1.09934c-1.3279,0.83826 -2.8105,2.92228 -3.1085,4.36948c-0.09242,0.44879 -0.11093,0.45877 -0.8513,0.45877c-0.41625,0 -0.79637,0.06399 -0.84471,0.1422c-0.04834,0.07822 0.28139,0.65786 0.73275,1.28809c0.45135,0.63023 1.15596,1.61434 1.56579,2.18691c0.40983,0.57257 0.80025,1.04103 0.86759,1.04103c0.06735,0 0.8119,-0.95284 1.65456,-2.11742zm-9.90361,8.67477c-6.29231,-0.81076 -12.06353,-4.20668 -15.87651,-9.34213c-1.9762,-2.66162 -3.62278,-6.33525 -4.16135,-9.28429c-0.12761,-0.69873 -0.29206,-1.50012 -0.36545,-1.78086c-0.18294,-0.69983 -0.16868,-5.29373 0.0193,-6.21912c0.51485,-2.53446 0.72407,-3.46595 0.83467,-3.71619c0.06863,-0.15527 0.26639,-0.69521 0.43948,-1.19985c0.17309,-0.50464 0.35922,-0.98105 0.41363,-1.05869c0.05441,-0.07764 0.17504,-0.37751 0.26807,-0.66639c0.23488,-0.72936 1.74101,-3.19898 2.78819,-4.57185c0.93506,-1.22587 2.51793,-2.87783 3.63716,-3.79591c0.67262,-0.55174 1.31826,-1.00981 2.63234,-1.86757c1.12604,-0.73502 3.68123,-1.94216 4.85524,-2.29374c0.6211,-0.186 1.1928,-0.38278 1.27043,-0.43728c0.07764,-0.0545 0.96694,-0.24529 1.97623,-0.42396c2.53415,-0.44863 6.16166,-0.45244 8.61068,-0.00904c0.93164,0.16867 1.82094,0.36331 1.97622,0.43254c0.15527,0.06922 0.75873,0.26911 1.34101,0.44419c1.90483,0.57276 5.23743,2.31878 6.58316,3.44906c0.09244,0.07764 0.38,0.29996 0.63903,0.49406c1.59177,1.19274 4.17973,4.15526 5.39607,6.17706c0.61365,1.01999 1.63725,3.01244 1.63815,3.18866c0.0003,0.0659 0.08962,0.31999 0.1984,0.56463c0.44309,0.99646 0.8252,2.36489 1.22469,4.38594c0.21517,1.08856 0.27713,1.99304 0.27832,4.06315c0.00088,1.46458 -0.05919,2.89891 -0.13341,3.18739c-0.07423,0.28848 -0.28124,1.24304 -0.46003,2.12124c-0.17879,0.87821 -0.37365,1.67222 -0.43301,1.76448c-0.0732,0.11376 -0.22861,0.00873 -0.48282,-0.3263c-0.82133,-1.08243 -2.86852,-2.94674 -4.00128,-3.64385c-2.00998,-1.23695 -3.88641,-1.82749 -6.22314,-1.9585c-2.56076,-0.14357 -5.07092,0.41904 -7.15555,1.60379c-0.52275,0.29709 -0.99809,0.56134 -1.05632,0.58722c-0.05823,0.02588 -0.10587,-0.3003 -0.10587,-0.72485c0,-0.66759 -0.04768,-0.80314 -0.35289,-1.00313c-0.60812,-0.39845 -0.36092,-1.14338 0.54388,-1.63898c0.76565,-0.41939 1.2206,-0.83795 1.2206,-1.12296c0,-0.12622 0.07623,-0.30571 0.16939,-0.39887c0.12055,-0.12056 0.12329,-0.1694 0.00951,-0.1694c-0.27748,0 -0.34042,-0.52497 -0.1248,-1.04101c0.17383,-0.41604 0.27266,-0.49255 0.606,-0.46913c0.31008,0.02178 0.40786,-0.03877 0.44143,-0.27339c0.02978,-0.20813 0.23214,-0.37355 0.65407,-0.53469c0.48999,-0.18713 0.62778,-0.31749 0.69597,-0.65845c0.0654,-0.327 0.22399,-0.48967 0.68708,-0.70477c0.33113,-0.1538 0.69734,-0.33444 0.81379,-0.4014c0.11646,-0.06697 0.38643,-0.1907 0.59993,-0.27497c0.481,-0.18984 0.49483,-0.47836 0.04008,-0.83607c-0.36893,-0.2902 -0.3369,-0.45246 0.08931,-0.45246c0.14234,0 0.25879,-0.06352 0.25879,-0.14116c0,-0.07764 -0.22011,-0.14116 -0.48914,-0.14116c-0.34221,0 -0.63403,0.12721 -0.97146,0.42348c-0.58276,0.51167 -0.85587,0.55179 -0.72064,0.10586c0.15703,-0.51781 0.6267,-0.9297 1.31928,-1.15695c0.97307,-0.31929 2.17202,-0.42477 2.54702,-0.22408c0.27061,0.14483 0.36549,0.12529 0.63893,-0.1316c0.17662,-0.16593 0.50412,-0.35062 0.72777,-0.41043c0.50051,-0.13386 0.60351,-0.53804 0.20775,-0.81524c-0.16235,-0.11371 -0.29517,-0.29163 -0.29517,-0.39538c0,-0.22721 -0.30859,-0.35999 -0.83662,-0.35999c-0.43147,0 -0.76955,-0.30875 -0.92739,-0.84695c-0.05693,-0.1941 -0.21531,-0.47994 -0.35196,-0.63522c-0.13665,-0.15527 -0.32534,-0.43121 -0.41932,-0.61319c-0.1689,-0.32708 -0.17437,-0.32779 -0.4764,-0.06223c-0.558,0.49062 -1.06621,0.63546 -1.52193,0.43374c-0.27841,-0.12324 -0.40694,-0.28273 -0.40694,-0.50499c0,-0.17867 -0.15119,-0.47605 -0.33599,-0.66084c-0.55264,-0.55265 -2.603,-1.02289 -2.83354,-0.64987c-0.04439,0.07182 -0.0102,0.28534 0.07599,0.47449c0.12263,0.26915 0.10893,0.43627 -0.06301,0.76877c-0.21357,0.41301 -0.20805,0.43523 0.198,0.79703c0.6043,0.53843 0.5256,0.88074 -0.32339,1.40652c-0.41239,0.25539 -0.4926,0.63516 -0.22475,1.06407c0.22151,0.35468 0.06533,0.6952 -0.36881,0.80417c-0.5712,0.14336 -0.76582,-0.01759 -1.20504,-0.99652c-0.38115,-0.84951 -0.44684,-0.92014 -0.85572,-0.92014c-0.24358,0 -0.61149,-0.11733 -0.81756,-0.26073c-0.53885,-0.37496 -1.24232,-0.58622 -1.95199,-0.58622c-0.51944,0 -0.63782,-0.05306 -0.7445,-0.33365c-0.06977,-0.1835 -0.227,-0.37207 -0.3494,-0.41904c-0.42213,-0.16199 -0.27721,-1.09493 0.30679,-1.97501c0.46545,-0.70142 0.58584,-0.79793 0.99739,-0.79949c0.64612,-0.00245 0.9333,-0.18634 1.43905,-0.92143c0.4175,-0.6068 0.85922,-0.81234 1.05724,-0.49194c0.04798,0.07764 0.27304,0.14116 0.50013,0.14116c0.40015,0 0.41121,-0.0185 0.3586,-0.59992c-0.02985,-0.32996 -0.06059,-0.64757 -0.06832,-0.7058c-0.00772,-0.05823 -0.1891,-0.10587 -0.40306,-0.10587c-0.29397,0 -0.43352,0.10055 -0.57117,0.41153c-0.10019,0.22634 -0.3434,0.51717 -0.54046,0.64629c-0.33526,0.21967 -0.37566,0.21904 -0.62867,-0.00992c-0.14871,-0.13458 -0.27038,-0.32638 -0.27038,-0.42622c0,-0.2549 -0.2793,-0.39883 -0.44751,-0.23062c-0.18256,0.18256 -1.39704,-0.48125 -1.31099,-0.71656c0.12341,-0.3375 -0.19375,-0.56575 -0.80436,-0.57886c-0.79605,-0.01709 -0.81835,0.28493 -0.05046,0.6834c0.70328,0.36495 0.78096,0.66941 0.22441,0.87948c-0.33942,0.12812 -0.41535,0.23388 -0.39228,0.54642c0.04093,0.55463 -0.29869,0.60455 -0.48461,0.07123l-0.1545,-0.4432l-1.27753,0.04229c-0.90658,0.03 -1.29413,-0.00737 -1.33469,-0.12866c-0.0538,-0.16091 -0.30746,-0.15259 -1.27244,0.04177c-0.22684,0.04569 -0.31761,0.16406 -0.31761,0.41418c0,0.43694 -0.07176,0.43665 -0.64776,-0.00269c-0.71991,-0.5491 -1.21939,-0.4706 -2.55187,0.40106c-2.21491,1.44892 -3.89762,3.0709 -5.41714,5.22162c-0.43625,0.61746 -0.4588,0.69506 -0.23792,0.81867c0.13421,0.07511 0.24401,0.22128 0.24401,0.32482c0,0.10354 0.13176,0.22272 0.2928,0.26483c0.16103,0.04211 0.32612,0.20404 0.36687,0.35985c0.04074,0.1558 0.33776,0.4545 0.66003,0.66376c1.19484,0.77587 1.47678,1.22689 1.00942,1.61476c-0.16982,0.14094 -0.25829,0.13737 -0.44689,-0.01801c-0.21059,-0.17349 -0.22641,-0.15686 -0.15148,0.15917c0.04601,0.19409 0.03931,0.86107 -0.0149,1.48217c-0.11535,1.32151 0.03685,2.25005 0.45509,2.77643c0.16464,0.2072 0.45784,0.64042 0.65157,0.9627c0.19373,0.32229 0.55629,0.71209 0.8057,0.86624c0.53403,0.33004 1.17119,1.05173 1.17119,1.32656c0,0.10634 0.2288,0.58374 0.50846,1.0609c0.27965,0.47715 0.52287,0.96575 0.54049,1.08578c0.03425,0.2334 0.50999,0.64351 0.61947,0.53402c0.03614,-0.03614 0.00157,-0.14665 -0.07687,-0.24557c-0.4226,-0.53309 -1.03844,-1.86334 -1.00025,-2.16057c0.04012,-0.31216 0.07336,-0.32672 0.38498,-0.16859c0.18759,0.09519 0.40992,0.37742 0.49406,0.62716c0.08414,0.24975 0.43883,0.78111 0.7882,1.18081c0.34937,0.3997 0.73049,0.89078 0.84695,1.0913c0.11645,0.20053 0.3887,0.51839 0.60499,0.70637c0.48522,0.4217 0.74417,0.91318 0.86891,1.64915c0.12965,0.765 0.27471,0.92285 1.41985,1.54505c0.54346,0.29529 1.07171,0.60376 1.17387,0.68549c0.10217,0.08173 0.60057,0.13717 1.10756,0.1232c0.85358,-0.02352 0.95052,0.00534 1.30971,0.38985l0.38789,0.41525l-0.32572,0.97118c-0.40531,1.20847 -0.75955,3.19944 -0.75955,4.26892c0,2.89663 1.27361,6.32054 3.182,8.55433l0.65111,0.76214l-1.59895,-0.01807c-0.87942,-0.00994 -2.235,-0.10003 -3.01239,-0.2002l0,0zm-2.89803,-41.50152c-0.19373,-0.23342 -0.78102,-0.27414 -0.9114,-0.06318c-0.04798,0.07763 0.00194,0.14115 0.11095,0.14115c0.109,0 0.31533,0.12944 0.4585,0.28765c0.23074,0.25496 0.27459,0.26214 0.38593,0.06318c0.07979,-0.14258 0.06375,-0.29898 -0.04398,-0.4288zm3.67626,25.38321c-0.50524,-0.09289 -0.69377,-0.28702 -1.08863,-1.12098c-0.29389,-0.62071 -0.3365,-0.86974 -0.26641,-1.55706c0.13491,-1.32293 0.13565,-1.37184 0.02484,-1.62251c-0.07612,-0.17218 0.04659,-0.39822 0.43567,-0.80253c0.44586,-0.46331 0.66917,-0.57968 1.26292,-0.6581c0.45297,-0.05983 0.83367,-0.03513 1.0234,0.06641c0.2709,0.14498 0.30211,0.12558 0.30211,-0.18785c0,-0.39361 0.24587,-0.62543 0.35678,-0.33639c0.04848,0.12633 0.25367,0.17157 0.61982,0.13665c0.32324,-0.03083 0.75264,0.04521 1.04871,0.18571c0.27575,0.13085 0.56295,0.19984 0.63823,0.15331c0.22248,-0.1375 0.56482,0.31078 0.72378,0.94776c0.08148,0.32646 0.20148,0.6899 0.26667,0.80764c0.08883,0.16044 -0.19627,0.5141 -1.13795,1.41159c-1.02131,0.97338 -1.33816,1.19751 -1.69287,1.19751c-0.37464,0 -0.48683,0.09336 -0.79297,0.65981c-0.423,0.7827 -0.71514,0.90453 -1.7241,0.71903z"
                  id="svg_16" opacity="0.4"/>
            <path stroke="null" fill="#fff" stroke-width="1.44536"
                  d="m44.4138,59.83475c-1.72844,-0.27307 -4.07497,-1.22784 -5.28881,-2.15194c-0.74716,-0.56882 -2.48872,-2.43351 -2.97386,-3.18411c-2.48772,-3.84899 -2.49104,-9.04112 -0.00821,-12.88252c1.47766,-2.28623 3.94422,-4.13305 6.54494,-4.90049c2.35286,-0.69429 3.86472,-0.71504 6.63446,-0.09106c0.60992,0.1374 2.90761,1.23246 3.63255,1.73123c1.49376,1.02773 3.04327,2.88321 3.85416,4.61521c0.82981,1.7724 1.08944,2.97381 1.09781,5.08001c0.00869,2.18746 -0.2638,3.35312 -1.27042,5.43461c-0.57829,1.19578 -0.81836,1.51005 -2.21683,2.90202c-1.38443,1.37799 -1.72703,1.63866 -2.92207,2.22326c-0.74457,0.36424 -1.8523,0.78975 -2.46162,0.94559c-1.29471,0.33113 -3.46152,0.46155 -4.62208,0.2782l0,0zm4.36832,-4.07245c1.31057,-0.45621 2.32232,-1.13976 3.11765,-2.10634c0.68771,-0.83578 1.37506,-2.06632 1.58064,-2.82978l0.15811,-0.58716l0.77093,0c0.92911,0 0.98674,-0.17846 0.33744,-1.04488c-1.11711,-1.49067 -2.00933,-2.72992 -2.21719,-3.07959c-0.31005,-0.52155 -0.61735,-0.61404 -0.87705,-0.26395c-0.11714,0.15791 -0.45437,0.62232 -0.74941,1.03204c-0.29504,0.40972 -0.91715,1.27056 -1.38248,1.91298c-0.46532,0.64242 -0.80775,1.23 -0.76095,1.30572c0.0468,0.07572 0.43178,0.13768 0.85551,0.13768l0.77042,0l-0.37169,0.73351c-0.49631,0.97943 -1.76736,2.20893 -2.80913,2.71732c-0.69998,0.3416 -1.07326,0.42389 -2.15108,0.47423c-1.45037,0.06775 -2.37474,-0.14614 -3.3346,-0.77158c-0.80957,-0.52751 -0.92297,-0.22127 -0.20012,0.54041c1.94171,2.04601 4.66801,2.7327 7.263,1.82938zm-6.92059,-7.35838c0.84266,-1.16458 1.55264,-2.21269 1.57774,-2.32912c0.03667,-0.17009 -0.12442,-0.21169 -0.81981,-0.21169l-0.86544,0l0.39633,-0.72733c0.5517,-1.01246 1.80074,-2.24159 2.72545,-2.68201c0.74388,-0.3543 2.69076,-0.78094 2.92342,-0.64064c0.06132,0.03698 0.4291,0.10929 0.81728,0.1607c0.38819,0.05141 1.10056,0.30988 1.58305,0.57438c1.21213,0.66448 1.32546,0.37986 0.24187,-0.60744c-1.54985,-1.41213 -2.99065,-2.00336 -4.88671,-2.00524c-1.19203,-0.00113 -2.65093,0.43119 -3.70937,1.09935c-1.3279,0.83825 -2.81049,2.92228 -3.1085,4.36948c-0.09241,0.44879 -0.11092,0.45877 -0.85129,0.45877c-0.41625,0 -0.79638,0.06399 -0.84472,0.14221c-0.04834,0.07822 0.2814,0.65786 0.73275,1.28809c0.45135,0.63023 1.15596,1.61434 1.56579,2.18691c0.40983,0.57257 0.80025,1.04103 0.8676,1.04103c0.06735,0 0.8119,-0.95284 1.65455,-2.11743zm-9.90361,8.67477c-6.29231,-0.81076 -12.06353,-4.20668 -15.87651,-9.34213c-1.9762,-2.66162 -3.62278,-6.33525 -4.16135,-9.28429c-0.12761,-0.69874 -0.29206,-1.50012 -0.36545,-1.78086c-0.18294,-0.69983 -0.16868,-5.29373 0.0193,-6.21913c0.51485,-2.53445 0.72407,-3.46594 0.83467,-3.71618c0.06863,-0.15528 0.26639,-0.69521 0.43948,-1.19985c0.17309,-0.50464 0.35922,-0.98105 0.41363,-1.05869c0.05441,-0.07764 0.17504,-0.37751 0.26807,-0.66639c0.23488,-0.72936 1.74101,-3.19899 2.7882,-4.57186c0.93505,-1.22586 2.51793,-2.87782 3.63716,-3.79591c0.67261,-0.55174 1.31826,-1.0098 2.63234,-1.86756c1.12604,-0.73502 3.68123,-1.94216 4.85525,-2.29374c0.6211,-0.186 1.19279,-0.38277 1.27043,-0.43728c0.07764,-0.0545 0.96694,-0.24529 1.97622,-0.42396c2.53415,-0.44863 6.16167,-0.45244 8.61068,-0.00904c0.93165,0.16867 1.82095,0.36332 1.97622,0.43254c0.15528,0.06922 0.75873,0.26911 1.34101,0.4442c1.90483,0.57276 5.23743,2.31878 6.58317,3.44906c0.09244,0.07764 0.38,0.29996 0.63902,0.49406c1.59177,1.19274 4.17973,4.15526 5.39608,6.17706c0.61364,1.01999 1.63725,3.01245 1.63815,3.18866c0.00029,0.0659 0.08962,0.31999 0.1984,0.56463c0.44309,0.99646 0.82519,2.36488 1.22469,4.38593c0.21517,1.08856 0.27713,1.99304 0.27832,4.06315c0.00088,1.46459 -0.05919,2.89891 -0.13342,3.18739c-0.07423,0.28848 -0.28124,1.24304 -0.46003,2.12124c-0.17879,0.87821 -0.37365,1.67222 -0.43301,1.76448c-0.07319,0.11375 -0.2286,0.00872 -0.48282,-0.32631c-0.82133,-1.08242 -2.86851,-2.94674 -4.00128,-3.64385c-2.00998,-1.23695 -3.88641,-1.82749 -6.22314,-1.9585c-2.56077,-0.14357 -5.07093,0.41904 -7.15555,1.60379c-0.52275,0.29709 -0.99809,0.56134 -1.05632,0.58722c-0.05823,0.02588 -0.10587,-0.3003 -0.10587,-0.72485c0,-0.66759 -0.04769,-0.80315 -0.3529,-1.00313c-0.60811,-0.39845 -0.36092,-1.14339 0.54388,-1.63899c0.76565,-0.41939 1.2206,-0.83794 1.2206,-1.12296c0,-0.12622 0.07623,-0.30571 0.16939,-0.39887c0.12055,-0.12055 0.12329,-0.16939 0.00951,-0.16939c-0.27748,0 -0.34042,-0.52497 -0.1248,-1.04102c0.17383,-0.41603 0.27266,-0.49254 0.606,-0.46913c0.31008,0.02178 0.40785,-0.03877 0.44142,-0.27339c0.02978,-0.20813 0.23214,-0.37355 0.65407,-0.53469c0.48999,-0.18713 0.62778,-0.31749 0.69597,-0.65845c0.0654,-0.327 0.22399,-0.48967 0.68708,-0.70477c0.33113,-0.15381 0.69734,-0.33444 0.81379,-0.4014c0.11646,-0.06697 0.38642,-0.1907 0.59992,-0.27497c0.481,-0.18984 0.49483,-0.47836 0.04008,-0.83607c-0.36893,-0.2902 -0.3369,-0.45246 0.08932,-0.45246c0.14233,0 0.25879,-0.06352 0.25879,-0.14116c0,-0.07764 -0.22012,-0.14116 -0.48914,-0.14116c-0.34221,0 -0.63403,0.12721 -0.97146,0.42348c-0.58277,0.51167 -0.85588,0.5518 -0.72065,0.10587c0.15703,-0.51782 0.62671,-0.92971 1.31928,-1.15696c0.97307,-0.31929 2.17203,-0.42477 2.54702,-0.22408c0.27061,0.14483 0.36549,0.12528 0.63893,-0.1316c0.17662,-0.16593 0.50411,-0.35062 0.72776,-0.41043c0.50051,-0.13385 0.60351,-0.53804 0.20775,-0.81524c-0.16234,-0.11371 -0.29517,-0.29163 -0.29517,-0.39538c0,-0.22721 -0.30858,-0.35999 -0.83662,-0.35999c-0.43147,0 -0.76955,-0.30875 -0.92739,-0.84695c-0.05693,-0.19409 -0.21531,-0.47994 -0.35195,-0.63521c-0.13665,-0.15527 -0.32534,-0.43121 -0.41932,-0.61319c-0.1689,-0.32707 -0.17438,-0.32779 -0.4764,-0.06223c-0.558,0.49062 -1.06621,0.63546 -1.52193,0.43374c-0.27841,-0.12324 -0.40693,-0.28273 -0.40693,-0.50498c0,-0.17867 -0.1512,-0.47605 -0.33599,-0.66085c-0.55264,-0.55264 -2.603,-1.02289 -2.83354,-0.64987c-0.04439,0.07182 -0.0102,0.28534 0.07599,0.47449c0.12263,0.26915 0.10893,0.43627 -0.06301,0.76877c-0.21358,0.41301 -0.20806,0.43523 0.19799,0.79703c0.6043,0.53843 0.5256,0.88074 -0.32339,1.40652c-0.41239,0.25539 -0.4926,0.63517 -0.22475,1.06407c0.2215,0.35468 0.06533,0.69521 -0.36881,0.80417c-0.5712,0.14336 -0.76582,-0.01759 -1.20504,-0.99651c-0.38115,-0.84951 -0.44684,-0.92015 -0.85572,-0.92015c-0.24358,0 -0.61149,-0.11733 -0.81757,-0.26073c-0.53885,-0.37496 -1.24231,-0.58623 -1.95199,-0.58623c-0.51943,0 -0.63782,-0.05305 -0.7445,-0.33364c-0.06977,-0.1835 -0.227,-0.37207 -0.3494,-0.41905c-0.42213,-0.16199 -0.27721,-1.09493 0.30679,-1.97501c0.46545,-0.70142 0.58584,-0.79793 0.99739,-0.79949c0.64611,-0.00245 0.9333,-0.18634 1.43905,-0.92143c0.41749,-0.60681 0.85921,-0.81234 1.05723,-0.49194c0.04798,0.07764 0.27304,0.14116 0.50013,0.14116c0.40016,0 0.41121,-0.0185 0.35861,-0.59993c-0.02985,-0.32996 -0.0606,-0.64756 -0.06832,-0.70579c-0.00773,-0.05823 -0.1891,-0.10587 -0.40306,-0.10587c-0.29397,0 -0.43352,0.10055 -0.57118,0.41153c-0.10019,0.22634 -0.34339,0.51717 -0.54045,0.64629c-0.33526,0.21967 -0.37567,0.21903 -0.62867,-0.00992c-0.14871,-0.13459 -0.27038,-0.32639 -0.27038,-0.42623c0,-0.2549 -0.2793,-0.39883 -0.44751,-0.23062c-0.18256,0.18256 -1.39704,-0.48124 -1.31099,-0.71655c0.12342,-0.3375 -0.19375,-0.56575 -0.80436,-0.57886c-0.79605,-0.01709 -0.81835,0.28492 -0.05046,0.6834c0.70328,0.36495 0.78096,0.6694 0.22441,0.87948c-0.33942,0.12812 -0.41534,0.23388 -0.39228,0.54642c0.04093,0.55463 -0.29869,0.60455 -0.48461,0.07123l-0.1545,-0.4432l-1.27753,0.04228c-0.90657,0.03 -1.29413,-0.00736 -1.33469,-0.12865c-0.0538,-0.16092 -0.30746,-0.15259 -1.27244,0.04176c-0.22684,0.04569 -0.31761,0.16406 -0.31761,0.41418c0,0.43695 -0.07176,0.43665 -0.64776,-0.00269c-0.71991,-0.5491 -1.21939,-0.4706 -2.55188,0.40106c-2.21491,1.44892 -3.89762,3.0709 -5.41713,5.22162c-0.43625,0.61747 -0.4588,0.69506 -0.23792,0.81868c0.13421,0.07511 0.24401,0.22127 0.24401,0.32482c0,0.10354 0.13176,0.22272 0.29279,0.26483c0.16104,0.04211 0.32613,0.20404 0.36687,0.35985c0.04074,0.15581 0.33776,0.4545 0.66003,0.66377c1.19485,0.77587 1.47678,1.22688 1.00942,1.61476c-0.16982,0.14094 -0.25829,0.13737 -0.44689,-0.01801c-0.21059,-0.17349 -0.22641,-0.15687 -0.15148,0.15916c0.04602,0.19409 0.03931,0.86107 -0.0149,1.48217c-0.11534,1.32151 0.03686,2.25005 0.4551,2.77643c0.16463,0.20721 0.45784,0.64042 0.65157,0.96271c0.19373,0.32228 0.55629,0.71209 0.8057,0.86623c0.53402,0.33004 1.17119,1.05174 1.17119,1.32656c0,0.10634 0.22881,0.58374 0.50846,1.0609c0.27965,0.47716 0.52287,0.96576 0.54049,1.08578c0.03426,0.2334 0.50999,0.64351 0.61948,0.53402c0.03614,-0.03614 0.00156,-0.14665 -0.07687,-0.24557c-0.4226,-0.53309 -1.03844,-1.86334 -1.00025,-2.16057c0.04012,-0.31217 0.07336,-0.32672 0.38498,-0.16859c0.18759,0.09519 0.40992,0.37741 0.49406,0.62716c0.08414,0.24975 0.43883,0.78111 0.7882,1.18081c0.34937,0.3997 0.7305,0.89078 0.84695,1.0913c0.11646,0.20052 0.3887,0.51838 0.60499,0.70636c0.48522,0.4217 0.74417,0.91318 0.86891,1.64915c0.12965,0.765 0.27471,0.92285 1.41985,1.54505c0.54346,0.29529 1.0717,0.60375 1.17387,0.68548c0.10217,0.08173 0.60057,0.13717 1.10756,0.1232c0.85358,-0.02352 0.95052,0.00534 1.30971,0.38985l0.3879,0.41525l-0.32572,0.97119c-0.40531,1.20847 -0.75955,3.19943 -0.75955,4.26891c0,2.89663 1.27361,6.32054 3.182,8.55434l0.65112,0.76214l-1.59895,-0.01808c-0.87942,-0.00994 -2.235,-0.10003 -3.01239,-0.20019l0,0zm-2.89803,-41.50152c-0.19373,-0.23343 -0.78102,-0.27415 -0.9114,-0.06319c-0.04798,0.07764 0.00194,0.14116 0.11095,0.14116c0.109,0 0.31533,0.12944 0.4585,0.28764c0.23074,0.25496 0.27459,0.26214 0.38592,0.06319c0.0798,-0.14258 0.06375,-0.29899 -0.04398,-0.4288zm3.67626,25.38321c-0.50523,-0.09289 -0.69376,-0.28703 -1.08862,-1.12098c-0.2939,-0.62072 -0.3365,-0.86974 -0.26641,-1.55707c0.13491,-1.32293 0.13565,-1.37184 0.02484,-1.6225c-0.07612,-0.17218 0.04659,-0.39822 0.43567,-0.80253c0.44586,-0.46332 0.66917,-0.57968 1.26292,-0.65811c0.45297,-0.05983 0.83367,-0.03512 1.0234,0.06641c0.2709,0.14498 0.30211,0.12558 0.30211,-0.18785c0,-0.39361 0.24587,-0.62543 0.35678,-0.3364c0.04848,0.12633 0.25367,0.17157 0.61982,0.13665c0.32323,-0.03083 0.75264,0.04522 1.04871,0.18571c0.27575,0.13085 0.56295,0.19984 0.63823,0.15332c0.22248,-0.1375 0.56482,0.31078 0.72378,0.94775c0.08147,0.32646 0.20147,0.68991 0.26666,0.80765c0.08883,0.16044 -0.19627,0.5141 -1.13795,1.41159c-1.02131,0.97338 -1.33816,1.19751 -1.69287,1.19751c-0.37464,0 -0.48684,0.09335 -0.79297,0.6598c-0.42301,0.7827 -0.71514,0.90454 -1.7241,0.71904z"
                  id="path10194"/>
        </g>
    </g>
</svg>
