<?xml version="1.0" encoding="UTF-8" standalone="no"?>
<!-- Created with Inkscape (http://www.inkscape.org/) -->

<svg
   xmlns:dc="http://purl.org/dc/elements/1.1/"
   xmlns:cc="http://creativecommons.org/ns#"
   xmlns:rdf="http://www.w3.org/1999/02/22-rdf-syntax-ns#"
   xmlns:svg="http://www.w3.org/2000/svg"
   xmlns="http://www.w3.org/2000/svg"
   xmlns:sodipodi="http://sodipodi.sourceforge.net/DTD/sodipodi-0.dtd"
   xmlns:inkscape="http://www.inkscape.org/namespaces/inkscape"
   id="svg2"
   version="1.1"
   inkscape:version="0.48.4 r9939"
   width="260"
   height="260"
   xml:space="preserve"
   sodipodi:docname="master_original_favicon.svg"
   inkscape:export-filename="master_original_favicon.png"
   inkscape:export-xdpi="90"
   inkscape:export-ydpi="90"><metadata
     id="metadata8"><rdf:RDF><cc:Work
         rdf:about=""><dc:format>image/svg+xml</dc:format><dc:type
           rdf:resource="http://purl.org/dc/dcmitype/StillImage" /><dc:title></dc:title></cc:Work></rdf:RDF></metadata><defs
     id="defs6" /><sodipodi:namedview
     pagecolor="#ffffff"
     bordercolor="#666666"
     borderopacity="1"
     objecttolerance="10"
     gridtolerance="10"
     guidetolerance="10"
     inkscape:pageopacity="0"
     inkscape:pageshadow="2"
     inkscape:window-width="1861"
     inkscape:window-height="1176"
     id="namedview4"
     showgrid="false"
     inkscape:zoom="2.6264843"
     inkscape:cx="139.55902"
     inkscape:cy="63.525562"
     inkscape:window-x="59"
     inkscape:window-y="24"
     inkscape:window-maximized="1"
     inkscape:current-layer="g10"
     fit-margin-top="0"
     fit-margin-left="0"
     fit-margin-right="0"
     fit-margin-bottom="0" /><g
     id="g10"
     inkscape:groupmode="layer"
     inkscape:label="ink_ext_XXXXXX"
     transform="matrix(1.25,0,0,-1.25,0,260)"><path
       inkscape:connector-curvature="0"
       id="path14"
       style="fill:#a2478a;fill-opacity:1;fill-rule:nonzero;stroke:none"
       d="m 104.00014,165.45424 c -8.313043,0 -16.263246,-1.57861 -23.850744,-4.72609 -7.594015,-3.15718 -14.181554,-7.52151 -19.768717,-13.10966 -5.587026,-5.58537 -10.031894,-12.10596 -13.321854,-19.55278 -3.297028,-7.45376 -4.942836,-15.61837 -4.942836,-24.4966 0,-8.312905 1.645808,-16.26269 4.942836,-23.850746 3.28996,-7.594012 7.734828,-14.256255 13.321854,-19.984093 5.587163,-5.733797 12.174702,-10.246299 19.768717,-13.536809 7.587498,-3.297027 15.537701,-4.941729 23.850744,-4.941729 8.30583,0 16.2577,1.644702 23.85171,4.941729 7.5875,3.29051 14.18128,7.803012 19.76942,13.536809 5.58675,5.727838 10.02454,12.390081 13.32171,19.984093 3.29023,7.588056 4.94089,15.537841 4.94089,23.850746 -0.85928,16.90258 -6.87567,31.15898 -18.04779,42.76184 -11.17419,11.60314 -25.6454,17.97571 -43.40561,19.12329 l -0.43033,0 z M 104.43047,208 c 14.03437,0 27.28859,-2.79405 39.75226,-8.38083 12.46244,-5.58534 23.4211,-13.10687 32.87602,-22.5618 9.45355,-9.45492 16.97508,-20.48705 22.56183,-33.09085 C 205.20733,131.3558 208,117.89258 208,103.56911 208,89.239815 205.27385,75.85019 199.83679,63.387487 194.39,50.925336 187.01124,39.966662 177.70323,30.511325 168.38966,21.056678 157.431,13.602838 144.82719,8.1646355 132.21703,2.726419 118.61203,0 104.00014,0 89.671258,0 76.208041,2.5780813 63.603558,7.7347705 50.993109,12.892 39.96777,20.123798 30.512431,29.437215 21.058202,38.744259 13.605015,49.702934 8.1651761,62.313379 2.7204595,74.917448 0,88.668665 0,103.56911 c 0,14.32347 2.6462976,27.71892 7.9502436,40.1826 5.2990814,12.46381 12.6781754,23.34765 22.1335154,32.66119 9.453538,9.30801 20.553026,16.76025 33.305391,22.347 12.744188,5.58675 26.429298,8.66218 41.04132,9.2401" /></g></svg>