<?xml version="1.0" encoding="utf-8"?>
<!-- Generator: Adobe Illustrator 16.0.3, SVG Export Plug-In . SVG Version: 6.00 Build 0)  -->
<!DOCTYPE svg PUBLIC "-//W3C//DTD SVG 1.1//EN" "http://www.w3.org/Graphics/SVG/1.1/DTD/svg11.dtd">
<svg version="1.1" id="Capa_1" xmlns="http://www.w3.org/2000/svg" xmlns:xlink="http://www.w3.org/1999/xlink" x="0px" y="0px"
	 width="283.46px" height="98.5px" viewBox="0 0 283.46 98.5" enable-background="new 0 0 283.46 98.5" xml:space="preserve">
<g>
	<path fill="#484697" d="M80.985,57.565c-0.087-0.01-0.196-0.01-0.238,0H68.053v-7.986c0,0,9.574-0.006,9.793,0
		c0.221,0.009,0.537-0.108,0.537-0.108c0.832-0.244,1.426-1.005,1.426-1.917c0-0.934-0.644-1.722-1.512-1.942
		c0,0-0.251-0.07-0.39-0.068c-0.139,0.005-9.854,0-9.854,0v-6.182l12.397-0.005c1.036-0.071,1.833-0.896,1.866-1.93l0.004-0.017
		l-0.004-0.112c-0.029-0.928-0.678-1.689-1.552-1.888c0,0-0.148-0.046-0.372-0.052c-0.225-0.003-14.471,0-14.471,0
		c-1.105,0-2.005,0.9-2.005,2.005v22.194c0,0.938,0.657,1.735,1.534,1.951c0,0,0.259,0.057,0.483,0.064
		c0.225,0.003,14.728-0.008,14.909,0c0.229,0.01,0.511-0.069,0.511-0.069c0.864-0.223,1.504-1.009,1.508-1.946
		C82.857,58.515,82.042,57.642,80.985,57.565z"/>
	<path fill="#484697" d="M248.091,58.907c-0.05-0.15-10.199-22.718-10.316-22.971c0-0.007-0.599-0.997-1.907-0.997
		c-1.199,0-1.811,0.891-1.868,1c0,0-10.144,22.485-10.25,22.732c-0.719,1.723,0.627,2.927,1.817,2.927
		c0.668,0,1.294-0.329,1.677-0.881c0.121-0.177,0.345-0.668,0.344-0.668l2.439-5.403h11.699c0,0,2.578,5.727,2.609,5.788
		c0.353,0.696,1.047,1.129,1.821,1.129c1.122,0,2.036-0.914,2.036-2.039C248.192,59.326,248.159,59.125,248.091,58.907z
		 M231.741,50.709l4.147-9.105l4.123,9.105H231.741z"/>
	<path fill="#484697" d="M164.2,58.907c-0.046-0.15-10.196-22.718-10.315-22.971c0-0.007-0.598-0.997-1.904-0.997
		c-1.203,0-1.813,0.891-1.869,1c0,0-10.145,22.485-10.247,22.732c-0.726,1.723,0.624,2.927,1.813,2.927
		c0.672,0,1.296-0.329,1.679-0.881c0.116-0.177,0.345-0.668,0.343-0.668l2.438-5.403h11.7c0,0,2.578,5.727,2.608,5.788
		c0.351,0.696,1.048,1.129,1.821,1.129c1.125,0,2.037-0.914,2.037-2.039C164.304,59.326,164.271,59.125,164.2,58.907z
		 M147.855,50.709l4.146-9.105l4.121,9.105H147.855z"/>
	<g>
		<path fill="#484697" d="M134.554,37.361l0.004,0.114l-0.002,0.02l-0.002,22.108c-0.026,0.671-0.37,1.282-0.92,1.651
			c-0.342,0.229-0.738,0.352-1.151,0.352c-0.405,0-0.803-0.122-1.146-0.348c-0.177-0.122-0.457-0.383-0.552-0.479
			c-0.049-0.05-13.754-17.696-13.754-17.696l-0.002,16.482c-0.041,1.114-0.958,2.005-2.068,2.005c-1.118,0-2.041-0.905-2.065-2.022
			l-0.005-0.087v-0.011l0.005-22.155c0.021-0.648,0.339-1.245,0.866-1.622c0.685-0.494,1.646-0.51,2.35-0.032
			c0,0,0.201,0.126,0.251,0.18c0.046,0.053,14.053,17.99,14.053,17.99V37.375c0.035-1.116,0.954-2.013,2.068-2.013
			C133.594,35.362,134.514,36.256,134.554,37.361z"/>
		<polygon fill="#484697" points="131.233,60.681 131.233,60.681 131.233,60.681 		"/>
	</g>
	<path fill="#484697" d="M194.439,37.368c-0.035-1.123-0.944-2.005-2.066-2.005c-0.958,0-2.025,0.75-2.072,2.023
		c-0.003,0.227,0.002,22.175,0.002,22.175c0.034,1.129,0.943,2.011,2.067,2.011c0.958,0,2.026-0.755,2.073-2.027
		C194.443,59.405,194.439,37.368,194.439,37.368z"/>
	<path fill="#484697" d="M184.767,36.389c-0.087-0.166-0.216-0.306-0.216-0.306c-0.336-0.405-0.825-0.669-1.372-0.711l-17.305-0.009
		c0,0-0.363,0.037-0.52,0.076c-0.753,0.186-1.372,0.899-1.455,1.768c-0.008,0.052-0.008,0.269,0.003,0.351
		c0.093,0.978,0.871,1.736,1.886,1.807h6.603v20.196c0.034,1.129,0.94,2.011,2.065,2.011c0.958,0,2.025-0.755,2.072-2.027
		c0-0.087-0.015-20.178-0.015-20.178l6.65-0.002c0.983-0.071,1.781-0.865,1.855-1.86c0.004-0.042,0.004-0.225,0-0.282
		C184.993,36.923,184.854,36.556,184.767,36.389z"/>
	<path fill="#484697" d="M224.385,37.797c0.107-0.251,0.157-0.518,0.157-0.791c0-1.067-0.838-1.971-1.922-2.061
		c-0.102-0.011-0.191-0.011-0.313,0.004c-0.564,0.042-1.082,0.321-1.434,0.745l-8.511,18.997l-8.467-18.901
		c-0.298-0.502-0.897-0.794-1.523-0.845c-0.102-0.011-0.193-0.011-0.316,0.004c-1.07,0.085-1.907,0.989-1.907,2.056
		c0,0.261,0.05,0.522,0.155,0.777l9.941,22.366l0.036,0.073c0.183,0.415,0.488,0.761,0.878,0.997
		c0.357,0.22,0.764,0.336,1.169,0.336s0.813-0.116,1.171-0.336c0.403-0.244,0.714-0.6,0.902-1.045L224.385,37.797z"/>
	<path fill="#484697" d="M107.252,57.293c-0.13-0.423-0.397-0.79-0.784-1.054c-0.499-0.323-1.121-0.406-1.681-0.212l-0.555,0.258
		c-1.596,0.987-3.238,1.388-5.213,1.388c-5.068,0-8.894-3.976-8.894-9.257c0-5.256,3.809-9.221,8.858-9.221
		c1.799,0,3.384,0.392,4.981,1.237c0,0,0.599,0.244,0.94,0.215c0.847-0.069,1.59-0.552,1.85-1.371
		c0.063-0.203,0.092-0.394,0.092-0.575c0-0.184-0.026-0.375-0.092-0.578c-0.168-0.687-0.804-1.056-0.804-1.056
		c-2.012-1.227-4.369-1.851-7-1.851c-7.355,0-12.901,5.673-12.901,13.199c0,7.526,5.545,13.202,12.901,13.198
		c2.803,0,5.26-0.674,7.304-2.004c0.162-0.079,0.319-0.186,0.458-0.314c0.251-0.233,0.438-0.53,0.539-0.85
		c0.016-0.047,0.026-0.098,0.042-0.155c0.035-0.156,0.052-0.294,0.052-0.423c0-0.132-0.017-0.265-0.056-0.434
		C107.279,57.386,107.269,57.334,107.252,57.293z"/>
	<g>
		<g>
			<path fill="#484697" d="M46.357,57.036c-1.134,0-2.052-0.917-2.052-2.052V37.44c0-1.134,0.918-2.054,2.052-2.054h9.733
				c1.134,0,2.051,0.919,2.051,2.054c0,1.134-0.917,2.051-2.051,2.051H48.41v15.493C48.41,56.119,47.49,57.036,46.357,57.036z"/>
		</g>
		<g>
			<path fill="#484697" d="M40.354,37.44c0-1.134-0.919-2.054-2.048-2.054h-1.77c-1.132,0-2.051,0.919-2.051,2.054
				c0,1.134,0.918,2.051,2.051,2.051h1.77C39.435,39.491,40.354,38.574,40.354,37.44z"/>
		</g>
		<g>
			<g>
				<g>
					<path fill="#484697" d="M46.507,68.416c4.465-0.068,8.581-2.565,10.749-6.506c0.534-0.978,0.18-2.203-0.798-2.74
						c-0.976-0.534-2.203-0.181-2.739,0.794c-1.47,2.681-4.258,4.372-7.278,4.42c-0.046,0-0.092,0.003-0.138,0.003
						c-3.079,0-5.914-1.686-7.417-4.423c-0.534-0.975-1.765-1.328-2.741-0.794c-0.974,0.537-1.33,1.768-0.794,2.74
						c2.216,4.031,6.398,6.513,10.953,6.513C46.372,68.423,46.44,68.423,46.507,68.416z"/>
				</g>
			</g>
		</g>
	</g>
</g>
</svg>
