<?xml version="1.0" standalone="no"?><!-- Generator: Gravit.io --><svg xmlns="http://www.w3.org/2000/svg" xmlns:xlink="http://www.w3.org/1999/xlink" style="isolation:isolate" viewBox="0 0 250 250" width="250" height="250"><defs><clipPath id="_clipPath_KBOvcQMajkx6u1KjE87f6Wp7zy0dKIrq"><rect width="250" height="250"/></clipPath></defs><g clip-path="url(#_clipPath_KBOvcQMajkx6u1KjE87f6Wp7zy0dKIrq)"><rect width="250" height="250" style="fill:rgb(0,0,0)" fill-opacity="0"/><defs><filter id="X8vnKaUKqkYAytrIn8Oy6z1k1pFTQEna" x="-200%" y="-200%" width="400%" height="400%" filterUnits="objectBoundingBox" color-interpolation-filters="sRGB"><feOffset xmlns="http://www.w3.org/2000/svg" in="SourceGraphic" dx="0" dy="3"/><feGaussianBlur xmlns="http://www.w3.org/2000/svg" stdDeviation="2.146804531419514" result="pf_100_offsetBlur"/><feComposite xmlns="http://www.w3.org/2000/svg" in="SourceGraphic" in2="pf_100_offsetBlur" result="pf_100_inverse" operator="out"/><feFlood xmlns="http://www.w3.org/2000/svg" flood-color="#FFFFFF" flood-opacity="0.5" result="pf_100_color"/><feComposite xmlns="http://www.w3.org/2000/svg" in="pf_100_color" in2="pf_100_inverse" operator="in" result="pf_100_shadow"/><feComposite xmlns="http://www.w3.org/2000/svg" in="pf_100_shadow" in2="SourceGraphic" operator="over" result="_out_KfogRIB1Z3caelhojJWnoaONSPxivnX7"/><feOffset xmlns="http://www.w3.org/2000/svg" in="_out_KfogRIB1Z3caelhojJWnoaONSPxivnX7" dx="0" dy="-3"/><feGaussianBlur xmlns="http://www.w3.org/2000/svg" stdDeviation="2.146804531419514" result="pf_101_offsetBlur"/><feComposite xmlns="http://www.w3.org/2000/svg" in="_out_KfogRIB1Z3caelhojJWnoaONSPxivnX7" in2="pf_101_offsetBlur" result="pf_101_inverse" operator="out"/><feFlood xmlns="http://www.w3.org/2000/svg" flood-color="#000000" flood-opacity="0.5" result="pf_101_color"/><feComposite xmlns="http://www.w3.org/2000/svg" in="pf_101_color" in2="pf_101_inverse" operator="in" result="pf_101_shadow"/><feComposite xmlns="http://www.w3.org/2000/svg" in="pf_101_shadow" in2="_out_KfogRIB1Z3caelhojJWnoaONSPxivnX7" operator="over" result="_out_eBBUZkzmm3LPw5i93XsTLnBhP1IFjsIl"/><feMerge><feMergeNode in="_out_eBBUZkzmm3LPw5i93XsTLnBhP1IFjsIl"/></feMerge></filter></defs><g filter="url(#X8vnKaUKqkYAytrIn8Oy6z1k1pFTQEna)"><path d="M 15 0 L 235 0 C 243.279 0 250 6.721 250 15 L 250 235 C 250 243.279 243.279 250 235 250 L 15 250 C 6.721 250 0 243.279 0 235 L 0 15 C 0 6.721 6.721 0 15 0 Z" style="stroke:none;fill:#747474;stroke-miterlimit:10;"/></g><g filter="url(#NSA4ysqYcOG4M1ElpxVdrf63x27scAFh)"><path d=" M 108.94 196 L 198.536 196 C 202.737 196 206.143 192.594 206.143 188.393 L 206.143 163.036 C 206.143 158.834 202.737 155.429 198.536 155.429 L 108.94 155.429 C 104.739 155.429 101.333 158.834 101.333 163.036 L 101.333 188.393 C 101.333 192.594 104.739 196 108.94 196 Z " fill="rgb(255,255,255)"/><path d=" M 101.333 61.607 L 101.333 86.964 C 101.333 91.166 104.739 94.571 108.94 94.571 L 198.536 94.571 C 202.737 94.571 206.143 91.166 206.143 86.964 L 206.143 61.607 C 206.143 57.406 202.737 54 198.536 54 L 108.94 54 C 104.739 54 101.333 57.406 101.333 61.607 Z " fill="rgb(255,255,255)"/><path d=" M 81.625 54 L 52.042 54 C 47.14 54 43.167 58.614 43.167 64.306 L 43.167 185.694 C 43.167 191.386 47.14 196 52.042 196 L 81.625 196 C 86.527 196 90.5 191.386 90.5 185.694 L 90.5 64.306 C 90.5 58.614 86.527 54 81.625 54 Z " fill="rgb(255,255,255)"/><path d=" M 108.94 145.286 L 198.536 145.286 C 202.737 145.286 206.143 141.88 206.143 137.679 L 206.143 112.321 C 206.143 108.12 202.737 104.714 198.536 104.714 L 108.94 104.714 C 104.739 104.714 101.333 108.12 101.333 112.321 L 101.333 137.679 C 101.333 141.88 104.739 145.286 108.94 145.286 Z " fill="rgb(255,255,255)"/></g><defs><filter id="NSA4ysqYcOG4M1ElpxVdrf63x27scAFh" x="-200%" y="-200%" width="400%" height="400%" filterUnits="objectBoundingBox" color-interpolation-filters="sRGB"><feGaussianBlur xmlns="http://www.w3.org/2000/svg" in="SourceGraphic" stdDeviation="2.146804531419514"/><feOffset xmlns="http://www.w3.org/2000/svg" dx="-5" dy="5" result="pf_100_offsetBlur"/><feFlood xmlns="http://www.w3.org/2000/svg" flood-color="#000000" flood-opacity="0.5"/><feComposite xmlns="http://www.w3.org/2000/svg" in2="pf_100_offsetBlur" operator="in" result="pf_100_dropShadow"/><feBlend xmlns="http://www.w3.org/2000/svg" in="SourceGraphic" in2="pf_100_dropShadow" mode="normal"/></filter></defs></g></svg>