<svg xmlns="http://www.w3.org/2000/svg" width="919" height="495" viewBox="0 0 919 495"><g fill="none"><path fill="#8F8F8F" d="M695 346c-41.421 0-75-33.579-75-75s33.579-75 75-75 75 33.579 75 75-33.579 75-75 75zm0-31c24.3 0 44-19.7 44-44s-19.7-44-44-44-44 19.7-44 44 19.7 44 44 44zm-157 31c-41.421 0-75-33.579-75-75s33.579-75 75-75 75 33.579 75 75-33.579 75-75 75zm0-31c24.3 0 44-19.7 44-44s-19.7-44-44-44-44 19.7-44 44 19.7 44 44 44zm-82-45c0 41.935-33.592 76-75.009 76C339.575 346 306 312.005 306 270.07c0-41.936 30.5-74.07 74.991-74.07 16.442 0 31.647 3.496 44.007 12.58l.002-43.49c0-8.334 7.27-15.09 15.5-15.09 8.228 0 15.5 6.762 15.5 15.09V270zm-75 45c24.3 0 44-19.7 44-44s-19.7-44-44-44-44 19.7-44 44 19.7 44 44 44z"/><path fill="#875A7B" d="M224 346c-41.421 0-75-33.579-75-75s33.579-75 75-75 75 33.579 75 75-33.579 75-75 75zm0-31c24.3 0 44-19.7 44-44s-19.7-44-44-44-44 19.7-44 44 19.7 44 44 44z"/></g><script xmlns=""/><script xmlns="" type="text/javascript"/><script xmlns="" type="text/javascript"/></svg>
