<?xml version="1.0" encoding="UTF-8" standalone="no"?>
<!-- Created with Inkscape (http://www.inkscape.org/) -->

<svg
   xmlns:dc="http://purl.org/dc/elements/1.1/"
   xmlns:cc="http://creativecommons.org/ns#"
   xmlns:rdf="http://www.w3.org/1999/02/22-rdf-syntax-ns#"
   xmlns:svg="http://www.w3.org/2000/svg"
   xmlns="http://www.w3.org/2000/svg"
   xmlns:xlink="http://www.w3.org/1999/xlink"
   xmlns:sodipodi="http://sodipodi.sourceforge.net/DTD/sodipodi-0.dtd"
   xmlns:inkscape="http://www.inkscape.org/namespaces/inkscape"
   id="svg2"
   version="1.1"
   inkscape:version="0.48.4 r9939"
   width="128"
   height="128"
   sodipodi:docname="icon.svg"
   inkscape:export-filename="icon.png"
   inkscape:export-xdpi="90"
   inkscape:export-ydpi="90">
  <metadata
     id="metadata8">
    <rdf:RDF>
      <cc:Work
         rdf:about="">
        <dc:format>image/svg+xml</dc:format>
        <dc:type
           rdf:resource="http://purl.org/dc/dcmitype/StillImage" />
        <dc:title></dc:title>
      </cc:Work>
    </rdf:RDF>
  </metadata>
  <defs
     id="defs6">
    <linearGradient
       id="linearGradient3798">
      <stop
         style="stop-color:#99cc00;stop-opacity:1;"
         offset="0"
         id="stop3800" />
      <stop
         style="stop-color:#669900;stop-opacity:1;"
         offset="1"
         id="stop3802" />
    </linearGradient>
    <linearGradient
       inkscape:collect="always"
       xlink:href="#linearGradient3798"
       id="linearGradient3804"
       x1="64"
       y1="124"
       x2="64"
       y2="4"
       gradientUnits="userSpaceOnUse"
       gradientTransform="translate(-140,0)" />
    <linearGradient
       inkscape:collect="always"
       xlink:href="#linearGradient3798"
       id="linearGradient4053"
       gradientUnits="userSpaceOnUse"
       x1="64"
       y1="124"
       x2="64"
       y2="4" />
    <linearGradient
       inkscape:collect="always"
       xlink:href="#linearGradient3798"
       id="linearGradient4056"
       gradientUnits="userSpaceOnUse"
       x1="64"
       y1="124"
       x2="64"
       y2="4" />
    <linearGradient
       inkscape:collect="always"
       xlink:href="#linearGradient3798"
       id="linearGradient2991"
       gradientUnits="userSpaceOnUse"
       x1="64"
       y1="124"
       x2="64"
       y2="4"
       gradientTransform="translate(-146.25,-29.75)" />
    <linearGradient
       inkscape:collect="always"
       xlink:href="#linearGradient3798"
       id="linearGradient3992"
       x1="64"
       y1="120"
       x2="64"
       y2="8"
       gradientUnits="userSpaceOnUse" />
    <linearGradient
       inkscape:collect="always"
       xlink:href="#linearGradient3798"
       id="linearGradient4000"
       x1="64"
       y1="8"
       x2="64"
       y2="120"
       gradientUnits="userSpaceOnUse" />
  </defs>
  <sodipodi:namedview
     pagecolor="#ffffff"
     bordercolor="#666666"
     borderopacity="1"
     objecttolerance="10"
     gridtolerance="10"
     guidetolerance="10"
     inkscape:pageopacity="0"
     inkscape:pageshadow="2"
     inkscape:window-width="1920"
     inkscape:window-height="1021"
     id="namedview4"
     showgrid="false"
     inkscape:zoom="2.8284271"
     inkscape:cx="80.682976"
     inkscape:cy="78.470127"
     inkscape:window-x="-2"
     inkscape:window-y="-3"
     inkscape:window-maximized="1"
     inkscape:current-layer="svg2"
     inkscape:snap-bbox="true"
     inkscape:bbox-paths="true"
     inkscape:bbox-nodes="true"
     inkscape:snap-bbox-edge-midpoints="true"
     inkscape:snap-bbox-midpoints="true"
     inkscape:object-paths="true"
     inkscape:snap-midpoints="true"
     inkscape:snap-object-midpoints="true"
     inkscape:snap-center="true"
     inkscape:snap-page="true"
     inkscape:snap-smooth-nodes="true"
     inkscape:object-nodes="true"
     inkscape:snap-intersection-paths="true"
     inkscape:snap-grids="true"
     showguides="true"
     inkscape:guide-bbox="true"
     borderlayer="true">
    <inkscape:grid
       type="xygrid"
       id="grid2984"
       empspacing="4"
       visible="true"
       enabled="true"
       snapvisiblegridlinesonly="true"
       dotted="false" />
  </sodipodi:namedview>
  <path
     inkscape:connector-curvature="0"
     id="path4002"
     d="m 65.060662,9.0606602 c -1.370154,0 -2.717003,0.0595 -4.0625,0.15625 l -6.96875,17.4062518 c -0.156734,0.0448 -0.312466,0.0782 -0.46875,0.125 -0.431442,0.12919 -0.856066,0.26302 -1.28125,0.40625 -0.220906,0.0744 -0.436413,0.17167 -0.65625,0.25 -0.253072,0.0903 -0.49931,0.18603 -0.75,0.28125 -0.892459,0.33811 -1.785009,0.68952 -2.65625,1.09375 -0.449864,0.20923 -0.903154,0.39972 -1.34375,0.625 -0.212894,0.1087 -0.413675,0.23098 -0.625,0.34375 -0.196991,0.10523 -0.398744,0.20409 -0.59375,0.3125 l -17.1875,-7.375 c -1.033687,0.8933 -2.034429,1.81568 -3,2.78125 -0.965571,0.96557 -1.88795,1.96631 -2.78125,3 l 7.375,17.1875 c -0.108409,0.19501 -0.207275,0.39676 -0.3125,0.59375 -0.112768,0.21132 -0.235045,0.41211 -0.34375,0.625 -0.14276,0.27921 -0.269907,0.56079 -0.40625,0.84375 -0.07949,0.16529 -0.141667,0.33386 -0.21875,0.5 -0.196499,0.42249 -0.380479,0.8509 -0.5625,1.28125 -0.190166,0.45102 -0.358371,0.91867 -0.53125,1.375 -0.09522,0.25069 -0.190952,0.49693 -0.28125,0.75 -0.07833,0.21984 -0.17564,0.43534 -0.25,0.65625 -0.143227,0.42518 -0.277061,0.84981 -0.40625,1.28125 -0.04388,0.14653 -0.08283,0.29058 -0.125,0.4375 -0.0027,0.01 0.0027,0.0217 0,0.0312 l -17.4062518,6.9688 c -0.096743,1.3455 -0.15625,2.69235 -0.15625,4.0625 0,1.37015 0.05951,2.717 0.15625,4.0625 l 17.4062518,6.96875 c 0.0027,0.01 -0.0027,0.0217 0,0.0312 0.04217,0.14692 0.08112,0.29097 0.125,0.4375 0.129189,0.43144 0.263023,0.85607 0.40625,1.28125 0.07436,0.22091 0.171674,0.43641 0.25,0.65625 0.0903,0.25307 0.186027,0.49931 0.28125,0.75 0.338109,0.89246 0.689521,1.78501 1.09375,2.65625 0.209229,0.44986 0.399721,0.90315 0.625,1.34375 0.108705,0.21289 0.230982,0.41368 0.34375,0.625 0.105225,0.19699 0.204091,0.39874 0.3125,0.59375 l -7.375,17.187518 c 0.8933,1.03369 1.815679,2.03443 2.78125,3 0.965571,0.96557 1.966313,1.88795 3,2.78125 l 17.1875,-7.37497 c 0.195006,0.10841 0.396759,0.20727 0.59375,0.31251 0.211325,0.11277 0.412106,0.23505 0.625,0.34375 0.279208,0.14276 0.560793,0.26992 0.84375,0.40626 0.165286,0.0795 0.333861,0.14167 0.5,0.21875 0.422493,0.1965 0.850904,0.38048 1.28125,0.5625 0.45102,0.19017 0.918674,0.35837 1.375,0.53125 0.25069,0.0952 0.496928,0.19095 0.75,0.28125 0.219837,0.0783 0.435344,0.17564 0.65625,0.25 0.425184,0.14323 0.849808,0.27706 1.28125,0.40625 0.156284,0.0468 0.312016,0.0802 0.46875,0.125 l 6.96875,17.40625 c 1.345497,0.0967 2.692346,0.15625 4.0625,0.15625 1.370153,0 2.717003,-0.0595 4.0625,-0.15625 l 6.96875,-17.40625 c 0.154287,-0.0442 0.315232,-0.079 0.46875,-0.125 0.42884,-0.12843 0.856069,-0.26313 1.28125,-0.40625 0.223471,-0.0753 0.434565,-0.1709 0.65625,-0.25 0.248213,-0.0884 0.503224,-0.18776 0.75,-0.28125 0.460534,-0.17493 0.922784,-0.33998 1.375,-0.53125 0.88809,-0.37445 1.76039,-0.74603 2.625,-1.18751 0.21262,-0.10871 0.41461,-0.23137 0.625,-0.34375 0.19684,-0.10505 0.39832,-0.20395 0.59375,-0.31251 l 17.187518,7.37502 c 1.03369,-0.8933 2.03443,-1.81568 3,-2.78125 0.96557,-0.96557 1.88795,-1.96631 2.78125,-3 l -7.37502,-17.187518 c 0.10857,-0.19543 0.20746,-0.39691 0.31251,-0.59375 0.11238,-0.21039 0.23504,-0.41239 0.34375,-0.625 0.44148,-0.86461 0.81306,-1.73691 1.18751,-2.625 0.19127,-0.45222 0.35632,-0.91447 0.53125,-1.375 0.0935,-0.24678 0.19281,-0.50179 0.28125,-0.75 0.0791,-0.22169 0.17472,-0.43278 0.25,-0.65625 0.14312,-0.42518 0.27782,-0.85241 0.40625,-1.28125 0.0431,-0.14401 0.0835,-0.29282 0.125,-0.4375 0.003,-0.01 -0.003,-0.0215 0,-0.0312 l 17.40625,-6.96875 c 0.0967,-1.34555 0.15625,-2.6924 0.15625,-4.06255 0,-1.37015 -0.0595,-2.717 -0.15625,-4.0625 l -17.40625,-6.96875 c -0.003,-0.01 0.003,-0.0215 0,-0.0312 -0.0415,-0.14468 -0.0819,-0.29349 -0.125,-0.4375 -0.12843,-0.42884 -0.26313,-0.85607 -0.40625,-1.28125 -0.0753,-0.22347 -0.1709,-0.43456 -0.25,-0.65625 -0.0884,-0.24821 -0.18776,-0.50322 -0.28125,-0.75 -0.17493,-0.46053 -0.33998,-0.92278 -0.53125,-1.375 -0.37445,-0.88809 -0.74603,-1.76039 -1.18751,-2.625 -0.10871,-0.21261 -0.23137,-0.41461 -0.34375,-0.625 -0.10505,-0.19684 -0.20394,-0.39832 -0.31251,-0.59375 l 7.37502,-17.1875 c -0.8933,-1.03369 -1.81568,-2.03443 -2.78125,-3 -0.96557,-0.96557 -1.96631,-1.88795 -3,-2.78125 l -17.187518,7.37495 c -0.19543,-0.10856 -0.39691,-0.20746 -0.59375,-0.3125 -0.21039,-0.11238 -0.41238,-0.23504 -0.625,-0.34375 -0.86461,-0.44147 -1.73691,-0.81305 -2.625,-1.1875 -0.452216,-0.19127 -0.914466,-0.35632 -1.375,-0.53125 -0.246776,-0.0935 -0.501787,-0.19281 -0.75,-0.28125 -0.221685,-0.0791 -0.432779,-0.17472 -0.65625,-0.25 -0.425181,-0.14312 -0.85241,-0.27782 -1.28125,-0.40625 -0.153518,-0.046 -0.314463,-0.0808 -0.46875,-0.125 L 69.123162,9.2169102 c -1.345497,-0.09674 -2.692347,-0.15625 -4.0625,-0.15625 z m 0,32.0000018 c 13.254834,0 24,10.74517 24,24 0,10.44853 -6.68016,19.32939 -16,22.625 l 0,5.375 -16,0 0,-5.375 c -9.319843,-3.29561 -16,-12.17647 -16,-22.625 0,-13.25483 10.745166,-24 24,-24 z"
     style="fill:#668000;fill-opacity:1;stroke:none" />
  <path
     style="fill:url(#linearGradient3992);fill-opacity:1;stroke:none"
     d="M 64,8 C 62.629846,8 61.282997,8.0595 59.9375,8.15625 L 52.96875,25.5625 c -0.156734,0.0448 -0.312466,0.0782 -0.46875,0.125 -0.431442,0.12919 -0.856066,0.26302 -1.28125,0.40625 -0.220906,0.0744 -0.436413,0.17167 -0.65625,0.25 -0.253072,0.0903 -0.49931,0.18603 -0.75,0.28125 -0.892459,0.33811 -1.785009,0.68952 -2.65625,1.09375 -0.449864,0.20923 -0.903154,0.39972 -1.34375,0.625 -0.212894,0.1087 -0.413675,0.23098 -0.625,0.34375 -0.196991,0.10523 -0.398744,0.20409 -0.59375,0.3125 l -17.1875,-7.375 c -1.033687,0.8933 -2.034429,1.81568 -3,2.78125 -0.965571,0.96557 -1.88795,1.96631 -2.78125,3 L 29,44.59375 c -0.108409,0.19501 -0.207275,0.39676 -0.3125,0.59375 -0.112768,0.21132 -0.235045,0.41211 -0.34375,0.625 -0.14276,0.27921 -0.269907,0.56079 -0.40625,0.84375 -0.07949,0.16529 -0.141667,0.33386 -0.21875,0.5 -0.196499,0.42249 -0.380479,0.8509 -0.5625,1.28125 -0.190166,0.45102 -0.358371,0.91867 -0.53125,1.375 -0.09522,0.25069 -0.190952,0.49693 -0.28125,0.75 -0.07833,0.21984 -0.17564,0.43534 -0.25,0.65625 -0.143227,0.42518 -0.277061,0.84981 -0.40625,1.28125 -0.04388,0.14653 -0.08283,0.29058 -0.125,0.4375 -0.0027,0.01 0.0027,0.0217 0,0.0312 L 8.15625,59.9375 C 8.059507,61.283 8,62.62985 8,64 c 0,1.37015 0.059507,2.717 0.15625,4.0625 l 17.40625,6.96875 c 0.0027,0.01 -0.0027,0.0217 0,0.0312 0.04217,0.14692 0.08112,0.29097 0.125,0.4375 0.129189,0.43144 0.263023,0.85607 0.40625,1.28125 0.07436,0.22091 0.171674,0.43641 0.25,0.65625 0.0903,0.25307 0.186027,0.49931 0.28125,0.75 0.338109,0.89246 0.689521,1.78501 1.09375,2.65625 0.209229,0.44986 0.399721,0.90315 0.625,1.34375 0.108705,0.21289 0.230982,0.41368 0.34375,0.625 0.105225,0.19699 0.204091,0.39874 0.3125,0.59375 l -7.375,17.1875 c 0.8933,1.03369 1.815679,2.03443 2.78125,3 0.965571,0.96557 1.966313,1.88795 3,2.78125 L 44.59375,99 c 0.195006,0.10841 0.396759,0.20727 0.59375,0.3125 0.211325,0.11277 0.412106,0.23505 0.625,0.34375 0.279208,0.14276 0.560793,0.26991 0.84375,0.40625 0.165286,0.0795 0.333861,0.14167 0.5,0.21875 0.422493,0.1965 0.850904,0.38048 1.28125,0.5625 0.45102,0.19017 0.918674,0.35837 1.375,0.53125 0.25069,0.0952 0.496928,0.19095 0.75,0.28125 0.219837,0.0783 0.435344,0.17564 0.65625,0.25 0.425184,0.14323 0.849808,0.27706 1.28125,0.40625 0.156284,0.0468 0.312016,0.0802 0.46875,0.125 l 6.96875,17.40625 C 61.282997,119.94049 62.629846,120 64,120 c 1.370153,0 2.717003,-0.0595 4.0625,-0.15625 l 6.96875,-17.40625 c 0.154287,-0.0442 0.315232,-0.079 0.46875,-0.125 0.42884,-0.12843 0.856069,-0.26313 1.28125,-0.40625 0.223471,-0.0753 0.434565,-0.1709 0.65625,-0.25 0.248213,-0.0884 0.503224,-0.18776 0.75,-0.28125 0.460534,-0.17493 0.922784,-0.33998 1.375,-0.53125 0.888088,-0.37445 1.760393,-0.74603 2.625,-1.1875 0.212615,-0.10871 0.414609,-0.23137 0.625,-0.34375 0.19684,-0.10504 0.39832,-0.20394 0.59375,-0.3125 l 17.1875,7.375 c 1.03369,-0.8933 2.03443,-1.81568 3,-2.78125 0.96557,-0.96557 1.88795,-1.96631 2.78125,-3 L 99,83.40625 c 0.108565,-0.19543 0.207461,-0.39691 0.3125,-0.59375 0.112383,-0.21039 0.235039,-0.41239 0.34375,-0.625 0.44147,-0.86461 0.81305,-1.73691 1.1875,-2.625 0.19127,-0.45222 0.35632,-0.91447 0.53125,-1.375 0.0935,-0.24678 0.19281,-0.50179 0.28125,-0.75 0.0791,-0.22169 0.17472,-0.43278 0.25,-0.65625 0.14312,-0.42518 0.27782,-0.85241 0.40625,-1.28125 0.0431,-0.14401 0.0835,-0.29282 0.125,-0.4375 0.003,-0.01 -0.003,-0.0215 0,-0.0312 l 17.40625,-6.96875 C 119.94049,66.717 120,65.37015 120,64 c 0,-1.37015 -0.0595,-2.717 -0.15625,-4.0625 L 102.4375,52.96875 c -0.003,-0.01 0.003,-0.0215 0,-0.0312 -0.0415,-0.14468 -0.0819,-0.29349 -0.125,-0.4375 -0.12843,-0.42884 -0.26313,-0.85607 -0.40625,-1.28125 -0.0753,-0.22347 -0.1709,-0.43456 -0.25,-0.65625 -0.0884,-0.24821 -0.18776,-0.50322 -0.28125,-0.75 -0.17493,-0.46053 -0.33998,-0.92278 -0.53125,-1.375 -0.37445,-0.88809 -0.74603,-1.76039 -1.1875,-2.625 -0.108711,-0.21261 -0.231367,-0.41461 -0.34375,-0.625 C 99.207461,44.99071 99.108565,44.78923 99,44.5938 l 7.375,-17.1875 c -0.8933,-1.03369 -1.81568,-2.03443 -2.78125,-3 -0.96557,-0.96557 -1.96631,-1.88795 -3,-2.78125 L 83.40625,29 c -0.19543,-0.10856 -0.39691,-0.20746 -0.59375,-0.3125 -0.210391,-0.11238 -0.412385,-0.23504 -0.625,-0.34375 -0.864607,-0.44147 -1.736912,-0.81305 -2.625,-1.1875 -0.452216,-0.19127 -0.914466,-0.35632 -1.375,-0.53125 -0.246776,-0.0935 -0.501787,-0.19281 -0.75,-0.28125 -0.221685,-0.0791 -0.432779,-0.17472 -0.65625,-0.25 C 76.356069,25.95063 75.92884,25.81593 75.5,25.6875 75.346482,25.6415 75.185537,25.6067 75.03125,25.5625 L 68.0625,8.15625 C 66.717003,8.05951 65.370153,8 64,8 z m 0,32 c 13.254834,0 24,10.74517 24,24 0,10.44853 -6.680157,19.32939 -16,22.625 L 72,92 56,92 56,86.625 C 46.680157,83.32939 40,74.44853 40,64 40,50.74517 50.745166,40 64,40 z"
     id="path3069"
     inkscape:connector-curvature="0" />
  <text
     sodipodi:linespacing="125%"
     id="text4004"
     y="78.900635"
     x="56.360664"
     style="font-size:40px;font-style:normal;font-variant:normal;font-weight:bold;font-stretch:normal;text-align:start;line-height:125%;letter-spacing:0px;word-spacing:0px;writing-mode:lr-tb;text-anchor:start;fill:#668000;fill-opacity:1;stroke:none;font-family:Titillium Web;-inkscape-font-specification:Titillium Web Bold"
     xml:space="preserve"><tspan
       style="fill:#668000;fill-opacity:1"
       y="78.900635"
       x="56.360664"
       id="tspan4006"
       sodipodi:role="line">?</tspan></text>
  <text
     xml:space="preserve"
     style="font-size:40px;font-style:normal;font-variant:normal;font-weight:bold;font-stretch:normal;text-align:start;line-height:125%;letter-spacing:0px;word-spacing:0px;writing-mode:lr-tb;text-anchor:start;fill:url(#linearGradient4000);fill-opacity:1;stroke:none;font-family:Titillium Web;-inkscape-font-specification:Titillium Web Bold"
     x="55.299999"
     y="77.839996"
     id="text3982"
     sodipodi:linespacing="125%"><tspan
       sodipodi:role="line"
       id="tspan3984"
       x="55.299999"
       y="77.839996"
       style="fill-opacity:1;fill:url(#linearGradient4000)">?</tspan></text>
</svg>
